<svg width="54" height="54" viewBox="0 0 54 54" fill="none" xmlns="http://www.w3.org/2000/svg">
<mask id="mask0_7170_23847" style="mask-type:alpha" maskUnits="userSpaceOnUse" x="0" y="0" width="54" height="54">
<circle cx="27" cy="27" r="27" fill="#F27A1A"/>
</mask>
<g mask="url(#mask0_7170_23847)">
<path d="M54.0032 27.0053C54.0032 23.7025 53.4092 20.5385 52.3237 17.6135L27.0016 16.4395L1.67948 17.6134C0.594141 20.5385 0 23.7025 0 27.0053C0 30.3081 0.594141 33.4721 1.67948 36.3971L27.0016 37.5712L52.3237 36.3972C53.4092 33.4721 54.0032 30.3081 54.0032 27.0053Z" fill="#E4002B"/>
<path d="M27.0008 53.9999C38.6106 53.9999 48.5078 46.6724 52.323 36.3901H1.67871C5.49385 46.6724 15.3911 53.9999 27.0008 53.9999Z" fill="#00AF66"/>
<path d="M1.67871 17.6098H52.3231C48.5078 7.32756 38.6106 0 27.0008 0C15.3911 0 5.49385 7.32756 1.67871 17.6098V17.6098Z" fill="#0092BC"/>
<path d="M27.5886 34.64C23.3742 34.64 19.9577 31.2235 19.9577 27.0091C19.9577 22.7947 23.3742 19.3782 27.5886 19.3782C28.9026 19.3782 30.1391 19.7104 31.2185 20.2954C29.525 18.6393 27.2092 17.6172 24.6536 17.6172C19.4666 17.6172 15.2618 21.8221 15.2618 27.009C15.2618 32.1959 19.4667 36.4008 24.6536 36.4008C27.2093 36.4008 29.5251 35.3787 31.2185 33.7226C30.1391 34.3078 28.9026 34.64 27.5886 34.64Z" fill="#F0F0F0"/>
<path d="M33.4588 21.7305L34.4696 24.5731L37.1944 23.2777L35.8991 26.0025L38.7418 27.0134L35.8991 28.0243L37.1944 30.7491L34.4696 29.4537L33.4588 32.2963L32.4482 29.4537L29.7232 30.7491L31.0187 28.0243L28.1759 27.0134L31.0187 26.0025L29.7232 23.2777L32.4482 24.5731L33.4588 21.7305Z" fill="#F0F0F0"/>
</g>
</svg>
