<svg width="12" height="12" viewBox="0 0 12 12" fill="none" xmlns="http://www.w3.org/2000/svg">
<path fill-rule="evenodd" clip-rule="evenodd" d="M1.87723 2.50279L0 0.625562L0.625562 0L2.01274 1.38718C2.1553 1.12498 2.39233 0.930254 2.63533 0.791357C3.02384 0.569279 3.52113 0.430093 4.00017 0.338758C4.96628 0.154555 6.00835 0.13854 6.35227 0.13854C6.6962 0.13854 7.73826 0.154554 8.70438 0.338757C9.18341 0.430091 9.6807 0.569277 10.0692 0.791355C10.4479 1.00779 10.812 1.35979 10.8268 1.89138L10.8273 9.09449C10.8273 9.42068 10.6969 9.68079 10.5101 9.88458L12 11.3744L11.3744 12L9.75578 10.3813C9.43045 10.5176 9.06232 10.6126 8.70438 10.6808C7.73826 10.8651 6.6962 10.8811 6.35227 10.8811C6.00835 10.8811 4.96628 10.8651 4.00017 10.6808C3.52113 10.5895 3.02384 10.4503 2.63533 10.2282C2.24873 10.0073 1.87723 9.64496 1.87723 9.09449V2.50279ZM2.76191 3.62432V3.71752C2.76191 3.80668 2.8102 3.93222 3.07435 4.08322C3.24014 4.17798 3.45478 4.25957 3.70263 4.32819L3.13958 3.76514C3.01018 3.72317 2.88373 3.67643 2.76191 3.62432ZM4.70252 4.07696L5.19591 4.57034C5.70948 4.61328 6.15066 4.61941 6.35227 4.61941C6.68277 4.61941 7.65705 4.60294 8.53869 4.43485C8.98352 4.35003 9.36795 4.23312 9.63019 4.08322C9.89435 3.93222 9.94263 3.80668 9.94263 3.71752V3.62432C9.52482 3.80305 9.05263 3.91854 8.5932 3.9958C7.8165 4.12641 6.9962 4.15985 6.35227 4.15985C5.87039 4.15985 5.28975 4.14112 4.70252 4.07696ZM5.29435 5.91991C4.90781 5.89531 4.504 5.85411 4.11133 5.78808C3.65191 5.71082 3.17972 5.59533 2.76191 5.41661V5.5098C2.76191 5.59897 2.8102 5.72451 3.07435 5.8755C3.33659 6.0254 3.72102 6.14232 4.16586 6.22713C4.72749 6.33422 5.32672 6.37977 5.77316 6.39873L5.29435 5.91991ZM7.10295 7.72851C6.8368 7.74005 6.5832 7.74435 6.35227 7.74435C5.70833 7.74435 4.88803 7.7109 4.11133 7.58029C3.65191 7.50303 3.17972 7.38754 2.76191 7.20882V7.30201C2.76191 7.39118 2.8102 7.51672 3.07435 7.66771C3.33659 7.81761 3.72102 7.93453 4.16586 8.01934C5.04749 8.18744 6.02178 8.20391 6.35227 8.20391C6.55637 8.20391 7.00598 8.19763 7.52767 8.15324L7.10295 7.72851ZM8.72418 9.34974C8.68044 9.35778 8.63676 9.36545 8.5932 9.37277C7.8165 9.50339 6.9962 9.53683 6.35227 9.53683C5.70833 9.53683 4.88803 9.50338 4.11133 9.37277C3.65191 9.29551 3.17972 9.18002 2.76191 9.0013V9.09449C2.76191 9.18366 2.8102 9.3092 3.07435 9.46019C3.33659 9.61009 3.72102 9.72701 4.16586 9.81182C5.04749 9.97992 6.02178 9.99639 6.35227 9.99639C6.68277 9.99639 7.65705 9.97992 8.53869 9.81182C8.72543 9.77622 8.90153 9.73496 9.06241 9.68797L8.72418 9.34974ZM9.88302 9.25746C9.93013 9.19467 9.94263 9.13987 9.94263 9.09449V9.0013C9.86866 9.03294 9.79299 9.0626 9.71598 9.09042L9.88302 9.25746ZM8.6274 8.00184L8.25633 7.63077C8.36909 7.61582 8.48159 7.59906 8.5932 7.58029C9.05263 7.50303 9.52482 7.38754 9.94263 7.20882V7.30201C9.94263 7.39118 9.89435 7.51672 9.63019 7.66771C9.38555 7.80755 9.03457 7.91869 8.6274 8.00184ZM7.02025 6.39469L6.57634 5.95078C7.1805 5.94337 7.90401 5.90398 8.5932 5.78808C9.05263 5.71082 9.52482 5.59534 9.94263 5.41661V5.5098C9.94263 5.59897 9.89435 5.72451 9.63019 5.8755C9.36795 6.0254 8.98352 6.14232 8.53869 6.22714C8.01353 6.32726 7.45551 6.37359 7.02025 6.39469ZM3.07435 1.55941C2.8102 1.71041 2.76191 1.83595 2.76191 1.92511C2.76191 2.01428 2.8102 2.13982 3.07435 2.29082C3.33659 2.44071 3.72102 2.55763 4.16586 2.64245C5.04749 2.81054 6.02178 2.82701 6.35227 2.82701C6.68277 2.82701 7.65705 2.81054 8.53869 2.64244C8.98352 2.55763 9.36795 2.44071 9.63019 2.29081C9.89435 2.13982 9.94263 2.01428 9.94263 1.92511C9.94263 1.83595 9.89435 1.7104 9.63019 1.55941C9.36795 1.40951 8.98352 1.2926 8.53869 1.20778C7.65705 1.03969 6.68277 1.02322 6.35227 1.02322C6.02178 1.02322 5.04749 1.03969 4.16586 1.20778C3.72102 1.2926 3.33659 1.40952 3.07435 1.55941Z" fill="#F27A1A"/>
</svg>
