<svg width="14" height="14" viewBox="0 0 14 14" fill="none" xmlns="http://www.w3.org/2000/svg">
<path fill-rule="evenodd" clip-rule="evenodd" d="M3.00086 3.88889C2.4497 3.88889 2.00057 4.324 2.00057 4.86111V5.83305C2.00057 6.38549 1.55273 6.83333 1.00029 6.83333C0.447843 6.83333 0 6.38549 0 5.83305V4.86111C0 3.25108 1.34593 1.94444 3.00086 1.94444H10.0029V0.393522C10.0029 0.229919 10.1886 0.135525 10.3207 0.23196L13.5572 2.59354C13.7761 2.75332 13.7761 3.08002 13.5572 3.23979L10.3207 5.60137C10.1886 5.69781 10.0029 5.60341 10.0029 5.43981V3.88889H3.00086ZM12 8.16667V9.13889C12 9.67458 11.551 10.1111 11 10.1111H3.99799L3.9996 8.56053C3.99976 8.39686 3.814 8.30229 3.68176 8.39872L0.44325 10.7601C0.224141 10.9199 0.224142 11.2468 0.44325 11.4065L3.68176 13.768C3.814 13.8644 3.99976 13.7698 3.9996 13.6061L3.99799 12.0556H11C12.6545 12.0556 14 10.7454 14 9.13889V8.16667C14 7.61438 13.5523 7.16667 13 7.16667C12.4477 7.16667 12 7.61438 12 8.16667Z" fill="#F27A1A"/>
</svg>
